<?xml version="1.0" standalone="no"?>
<!DOCTYPE svg PUBLIC "-//W3C//DTD SVG 20010904//EN"
 "http://www.w3.org/TR/2001/REC-SVG-20010904/DTD/svg10.dtd">
<svg version="1.0" xmlns="http://www.w3.org/2000/svg"
 width="1400.000000pt" height="480.000000pt" viewBox="0 0 1400.000000 480.000000"
 preserveAspectRatio="xMidYMid meet">

<g transform="translate(0.000000,480.000000) scale(0.100000,-0.100000)"
fill="#000000" stroke="none">
<path d="M6615 4130 c-3 -6 1 -7 9 -4 18 7 21 14 7 14 -6 0 -13 -4 -16 -10z"/>
<path d="M6527 4084 c-22 -14 -36 -28 -34 -31 5 -5 77 45 77 53 0 6 -2 5 -43
-22z"/>
<path d="M6910 4101 c-25 -14 -80 -21 -80 -11 0 6 -6 10 -14 10 -14 0 -43 -86
-33 -97 4 -3 13 -1 20 5 10 9 17 8 26 -1 10 -9 15 -8 25 7 6 10 21 31 34 45
22 25 22 24 -3 -23 -32 -59 -25 -72 15 -25 17 19 27 26 24 17 -5 -14 0 -17 28
-15 18 1 39 6 47 11 10 7 12 2 7 -25 -7 -32 -6 -33 9 -14 9 11 22 29 30 40 8
11 6 -1 -5 -29 -11 -27 -19 -51 -16 -53 2 -3 23 21 45 51 23 31 49 56 59 56
13 -1 10 -6 -10 -21 -38 -28 -35 -46 7 -51 32 -4 40 2 36 25 -1 5 7 6 18 2 11
-3 22 -1 25 4 8 12 -131 91 -159 91 -15 0 -16 -3 -7 -9 10 -6 2 -14 -29 -30
l-42 -22 17 25 c18 29 15 32 -16 15 -16 -8 -19 -8 -13 1 4 7 1 16 -6 21 -17
11 -20 11 -39 0z"/>
<path d="M6378 3969 c-55 -55 -148 -189 -148 -213 0 -4 27 32 60 81 59 88 116
154 148 172 9 5 14 13 10 17 -4 3 -36 -22 -70 -57z"/>
<path d="M7186 3965 c-23 -35 -21 -49 7 -40 12 3 32 9 45 12 25 6 30 23 7 23
-8 0 -15 7 -15 15 0 23 -26 18 -44 -10z"/>
<path d="M6770 3953 c-73 -12 -168 -73 -252 -161 -100 -105 -156 -232 -213
-487 -9 -38 -18 -79 -20 -90 -10 -40 44 -230 103 -367 2 -4 -5 -7 -15 -6 -20
0 -132 -39 -203 -71 -25 -11 -58 -21 -75 -21 -43 0 -90 -32 -169 -114 -99
-103 -126 -142 -126 -187 0 -37 0 -37 -107 -94 -149 -80 -285 -186 -353 -275
-56 -74 -159 -257 -181 -320 -29 -86 -52 -131 -65 -126 -50 21 -49 21 -26 -8
24 -31 20 -55 -6 -34 -14 12 -14 10 -3 -11 11 -19 9 -34 -9 -92 -13 -38 -24
-68 -26 -66 -3 3 -10 41 -18 107 -18 138 -63 280 -80 252 -3 -5 -10 -39 -15
-74 -11 -79 -26 -107 -55 -101 -20 4 -20 4 -3 -10 16 -13 12 -15 -43 -15 -33
0 -57 4 -54 9 3 5 -2 9 -11 9 -9 0 -13 5 -10 11 4 6 -2 13 -14 16 -34 9 -26
47 17 83 20 17 47 33 60 36 12 4 22 10 22 15 0 5 5 9 11 9 5 0 24 10 42 23 29
20 32 28 36 82 3 62 26 115 48 115 7 0 13 5 13 10 0 6 -16 10 -36 10 -19 0
-44 5 -55 10 -15 8 -23 7 -35 -5 -36 -35 -103 -28 -96 11 2 10 -4 23 -13 30
-15 11 -15 15 -1 36 13 21 13 25 -4 46 -21 25 -33 27 -79 11 -39 -14 -39 -21
-1 -37 25 -12 28 -17 20 -33 -6 -11 -21 -19 -36 -19 -14 0 -35 -11 -48 -24
-19 -22 -27 -24 -60 -16 -21 4 -45 14 -54 22 -29 23 -62 39 -71 34 -4 -3 -25
10 -47 29 -21 19 -47 37 -56 40 -9 3 -20 15 -23 26 -4 10 -11 19 -16 19 -5 0
-9 7 -9 15 0 8 -5 15 -11 15 -8 0 -8 4 -2 13 6 6 14 29 17 51 6 33 5 38 -8 33
-9 -4 -16 -2 -16 2 0 5 6 11 13 14 6 2 9 8 5 12 -11 12 -37 -14 -35 -35 1 -10
4 -18 7 -17 3 1 6 -2 7 -8 1 -5 -5 -9 -14 -7 -8 2 -20 -4 -27 -13 -6 -9 -29
-22 -51 -30 -27 -9 -33 -14 -18 -15 12 0 33 4 46 9 20 8 28 5 49 -19 14 -16
23 -32 20 -35 -3 -3 6 -5 19 -5 23 -1 23 -1 5 -15 -11 -8 -15 -15 -9 -15 6 0
8 -26 5 -72 -2 -40 0 -95 5 -123 14 -82 9 -93 -45 -100 -26 -4 -55 -9 -65 -12
-29 -8 -111 -84 -122 -113 -19 -53 -79 -130 -96 -124 -9 2 -24 -2 -32 -11 -21
-20 -62 -35 -98 -35 -16 0 -29 -4 -29 -10 0 -5 -4 -10 -9 -10 -9 0 -167 -70
-201 -88 -8 -5 -37 -21 -65 -37 -130 -72 -213 -158 -314 -326 -54 -92 -61
-114 -87 -311 -52 -397 -75 -564 -93 -678 -6 -36 -11 -71 -11 -78 0 -11 123
-12 708 -7 958 9 986 9 1075 19 68 7 77 6 77 -8 0 -15 78 -16 905 -16 l905 0
0 25 c0 14 6 25 13 25 8 0 9 3 1 8 -10 6 -13 72 -11 212 0 25 1 92 1 150 l1
106 20 -31 c13 -19 29 -30 44 -30 23 0 24 -3 27 -75 1 -41 7 -86 12 -100 13
-36 0 -74 -25 -78 -18 -3 -22 -12 -28 -73 -4 -41 -12 -69 -19 -69 -7 0 -6 -3
2 -9 8 -4 12 -19 10 -32 l-3 -24 1988 -3 c1891 -2 1988 -1 1983 15 -3 10 -19
81 -36 158 -17 77 -62 259 -100 405 -49 190 -76 318 -94 450 -15 102 -32 205
-40 230 -39 128 -192 451 -242 508 -27 32 -43 41 -80 47 -26 4 -64 18 -85 32
-24 16 -45 23 -58 18 -12 -4 -31 1 -47 12 -15 10 -50 28 -77 39 -47 20 -52 25
-73 85 -30 83 -51 109 -107 137 -44 21 -47 25 -47 61 0 21 6 57 14 79 8 23 17
65 20 94 2 29 9 65 15 81 6 15 10 73 8 130 -2 89 1 107 18 131 44 63 53 82 48
101 -2 12 0 39 5 61 7 32 5 47 -10 74 -10 19 -18 51 -18 72 0 20 -5 40 -11 44
-6 3 -19 25 -30 48 -60 135 -208 253 -350 278 -38 6 -63 16 -69 27 -12 23 -93
27 -123 6 -25 -17 -41 -20 -32 -5 3 6 2 10 -4 10 -5 0 -13 -4 -16 -10 -3 -5
-16 -15 -27 -21 -18 -10 -20 -9 -14 6 6 16 1 17 -58 11 -36 -3 -81 -13 -102
-22 -21 -9 -47 -18 -58 -20 -36 -7 -74 -57 -81 -108 -6 -39 -11 -47 -34 -52
-44 -9 -54 -18 -116 -105 l-60 -83 -1 -101 c-2 -120 21 -243 44 -238 6 2 9 -4
6 -12 -5 -13 -3 -13 22 0 35 18 44 11 17 -15 -12 -10 -24 -33 -28 -50 -7 -33
-21 -40 -28 -12 -4 13 -5 12 -6 -5 -1 -31 54 -149 74 -157 9 -3 14 -10 11 -15
-4 -5 6 -19 20 -30 28 -22 50 -28 39 -11 -3 5 -2 17 3 27 31 59 33 69 23 97
-14 36 -13 46 1 21 13 -21 29 -85 31 -125 1 -14 6 -30 10 -37 4 -6 10 -38 13
-70 5 -44 3 -61 -7 -69 -12 -9 -133 -42 -219 -58 -35 -7 -128 -92 -145 -132
-14 -35 -106 -134 -124 -134 -5 0 -20 17 -32 38 -13 20 -52 73 -87 116 -63 78
-64 80 -53 115 14 43 2 152 -23 199 -29 55 -103 106 -332 229 -263 140 -299
157 -374 177 -30 8 -64 22 -75 30 -19 14 -19 15 11 53 21 27 37 66 54 136 13
53 27 97 32 97 4 0 8 15 8 33 0 24 -3 28 -10 17 -8 -12 -10 -10 -10 8 0 13 5
32 10 42 8 16 22 177 21 240 -2 58 -8 100 -18 112 -6 7 -15 26 -18 41 -30 118
-214 325 -304 342 -14 3 -54 12 -88 20 -57 14 -146 18 -203 8z m24 -152 c30
-17 37 -19 33 -7 -8 21 2 20 59 -4 l47 -20 -7 -63 c-5 -54 -4 -59 7 -42 8 11
19 34 25 50 6 17 11 24 11 18 1 -7 8 -13 17 -13 14 0 14 3 4 15 -8 10 -9 15
-2 15 6 0 18 -16 27 -35 9 -19 23 -39 31 -46 21 -17 17 -29 -8 -29 -29 -1 -58
-22 -58 -43 0 -16 47 -31 86 -27 49 5 62 0 73 -32 9 -26 9 -30 -1 -20 -18 18
-27 15 -25 -8 1 -12 11 -23 24 -26 43 -11 23 -19 -40 -16 -53 3 -65 0 -82 -17
-11 -13 -15 -25 -9 -30 5 -5 48 -11 96 -13 75 -3 90 -6 112 -27 26 -24 64
-107 58 -126 -2 -5 -6 -43 -8 -84 -3 -41 -9 -80 -14 -86 -5 -6 -9 -20 -9 -30
1 -30 -7 -81 -15 -94 -4 -6 -2 -11 3 -11 20 0 12 -56 -11 -76 -21 -19 -21 -19
-16 4 9 32 -3 27 -37 -18 -16 -21 -35 -39 -41 -40 -7 0 -14 -7 -18 -15 -3 -8
-14 -15 -24 -15 -10 0 -24 -11 -30 -25 -13 -29 -32 -33 -32 -7 -1 16 -1 16
-14 0 -7 -10 -18 -18 -25 -18 -6 0 -11 -7 -11 -15 0 -16 -33 -37 -53 -34 -6 1
-25 -3 -40 -9 -16 -7 -36 -12 -45 -12 -26 0 -102 29 -131 49 -14 10 -32 16
-38 14 -7 -3 -13 2 -13 11 0 9 -4 16 -10 16 -5 0 -13 14 -18 32 -4 17 -18 38
-31 47 l-24 15 17 -33 c25 -47 13 -50 -29 -7 -19 20 -43 35 -53 34 -12 -2 -25
13 -45 52 -35 71 -45 147 -23 175 16 20 16 20 31 1 21 -28 19 -12 -5 34 -29
56 -35 145 -14 193 10 20 21 37 26 37 4 0 8 6 8 13 0 17 42 52 58 49 7 -2 15
4 18 13 5 12 24 15 95 15 49 0 89 3 89 8 0 4 -7 16 -15 26 -11 15 -31 21 -75
24 -55 4 -58 6 -43 21 15 15 15 16 0 19 -9 2 -17 10 -17 18 0 8 -4 14 -10 14
-20 0 -60 -24 -65 -39 -2 -9 -14 -22 -25 -29 -20 -12 -21 -12 -6 17 10 18 35
39 63 53 27 13 50 26 53 29 3 3 28 5 55 5 39 -1 49 2 47 14 -3 11 1 10 16 -3
16 -15 20 -16 25 -3 3 8 -1 17 -9 20 -8 3 -14 10 -14 16 0 8 6 8 20 0 13 -7
20 -7 20 -1 0 11 -34 32 -47 30 -32 -5 -41 3 -40 37 1 19 -4 38 -10 42 -6 4
-13 17 -17 29 -5 17 -1 25 21 36 36 20 78 15 127 -12z m256 -361 c0 -5 -4 -10
-10 -10 -5 0 -10 5 -10 10 0 6 5 10 10 10 6 0 10 -4 10 -10z m2112 -439 c-10
-6 -10 -10 3 -21 27 -23 -11 -52 -43 -32 -21 14 2 62 30 62 16 0 19 -3 10 -9z
m36 -116 c2 -2 -15 -5 -37 -7 -25 -2 -42 1 -45 8 -3 8 8 10 37 7 23 -3 43 -7
45 -8z m165 -58 c7 4 4 -5 -6 -21 -13 -19 -16 -36 -12 -57 6 -26 4 -29 -19
-29 -13 0 -28 -4 -31 -10 -3 -5 -11 -10 -17 -10 -15 0 0 51 23 76 11 12 19 25
18 30 -1 5 1 17 6 28 7 16 9 17 17 2 5 -9 14 -13 21 -9z m-221 -9 c-6 -6 -8
-16 -6 -23 3 -7 -12 -17 -40 -25 -24 -6 -57 -25 -72 -41 -25 -26 -54 -39 -54
-24 0 6 3 10 43 56 12 14 28 36 36 47 8 12 18 19 21 17 4 -2 20 0 36 4 33 9
51 4 36 -11z m38 -13 c0 -8 -7 -15 -15 -15 -16 0 -20 12 -8 23 11 12 23 8 23
-8z m-50 -60 c0 -8 -4 -15 -10 -15 -5 0 -10 7 -10 15 0 8 5 15 10 15 6 0 10
-7 10 -15z m337 -23 c-10 -2 -17 -8 -17 -13 0 -5 -4 -9 -10 -9 -14 0 -13 23 2
38 9 9 15 9 26 -1 13 -10 13 -12 -1 -15z m-317 -52 c0 -5 -11 -10 -25 -10 -14
0 -25 5 -25 10 0 6 11 10 25 10 14 0 25 -4 25 -10z m-500 -45 c0 -6 -5 -16
-12 -23 -9 -9 -8 -12 7 -12 15 0 16 -3 7 -12 -7 -7 -12 -17 -12 -22 0 -6 4 -4
10 4 5 8 12 11 16 8 4 -4 -1 -19 -10 -32 -20 -32 -21 -42 0 -25 13 10 17 10
25 -2 15 -23 10 -28 -21 -24 -17 2 -39 14 -50 27 -14 17 -19 19 -20 7 0 -8 7
-24 15 -35 21 -27 18 -40 -4 -20 -33 30 -34 62 -4 137 24 62 29 68 40 53 7
-10 13 -23 13 -29z m470 18 c8 -4 24 -5 35 -4 27 4 8 -15 -25 -24 -19 -5 -21
-4 -10 4 12 9 10 11 -10 11 -35 0 -70 11 -70 21 0 8 50 3 80 -8z m-114 -14
c17 1 42 -7 55 -17 13 -10 32 -22 43 -25 17 -7 17 -9 3 -31 -19 -28 -13 -36
22 -36 19 0 22 -3 13 -12 -7 -7 -12 -20 -12 -29 0 -26 -33 -78 -53 -85 -20 -6
-67 36 -67 60 0 8 -7 19 -15 26 -8 7 -15 18 -15 26 0 7 -18 28 -40 45 -30 25
-40 39 -40 62 0 28 1 29 38 22 20 -4 51 -7 68 -6z m184 -19 c0 -5 -7 -10 -16
-10 -8 0 -12 5 -9 10 3 6 10 10 16 10 5 0 9 -4 9 -10z m-2560 -42 c47 -29 58
-31 162 -35 63 -2 117 -8 125 -15 13 -11 12 -35 -3 -90 -9 -30 20 -21 72 22
27 22 52 40 56 40 12 0 10 -38 -2 -45 -5 -3 -10 -21 -10 -38 0 -18 -4 -38 -9
-46 -7 -10 -5 -18 5 -26 13 -9 12 -14 -6 -38 -12 -15 -26 -25 -31 -22 -5 4 -9
-1 -9 -9 0 -19 -114 -132 -154 -153 -23 -12 -37 -13 -65 -4 -39 12 -186 106
-256 164 l-44 37 24 53 c29 60 31 83 10 103 -19 20 -19 26 3 50 11 12 17 33
17 57 -2 39 -2 39 32 32 18 -3 56 -20 83 -37z m2894 32 c14 -5 26 -16 26 -24
0 -12 -6 -13 -29 -5 -16 6 -32 17 -35 25 -6 16 3 18 38 4z m-281 -40 c3 -11 1
-23 -4 -26 -12 -7 -8 -74 4 -74 17 0 0 -25 -19 -27 -42 -4 -59 -11 -56 -23 3
-14 -15 -30 -36 -30 -6 0 0 14 15 30 48 54 75 112 71 152 -2 27 0 34 8 27 7
-5 14 -19 17 -29z m-2183 15 c-7 -8 -16 -12 -21 -9 -13 8 -1 24 18 24 13 0 13
-3 3 -15z m2332 -11 c7 -8 22 -25 32 -36 35 -39 -4 -61 -79 -47 -6 1 -23 -1
-38 -5 -22 -5 -27 -3 -27 13 0 14 8 21 28 23 21 2 29 10 37 36 10 35 27 41 47
16z m178 -115 c0 -14 -28 -36 -35 -27 -1 2 -9 18 -19 37 -13 27 -14 36 -4 42
16 10 58 -28 58 -52z m-220 12 c0 -5 -6 -14 -14 -20 -10 -9 -16 -8 -25 3 -10
11 -8 15 6 19 29 8 33 7 33 -2z m40 -31 c0 -5 -4 -10 -10 -10 -5 0 -10 5 -10
10 0 6 5 10 10 10 6 0 10 -4 10 -10z m-290 -96 c0 -14 -3 -14 -15 -4 -8 7 -15
14 -15 16 0 2 7 4 15 4 8 0 15 -7 15 -16z m-2642 -45 c22 -23 61 -54 88 -69
28 -16 48 -34 48 -43 -1 -9 4 -13 12 -10 7 3 27 -8 42 -24 16 -15 46 -37 66
-47 39 -21 47 -36 18 -36 -10 0 -22 -3 -26 -7 -12 -12 -46 -10 -46 4 0 7 -19
30 -42 50 -49 43 -176 175 -196 204 -22 32 -6 22 36 -22z m632 10 c0 -11 -5
-29 -11 -41 -11 -20 -11 -20 -26 2 -14 19 -13 23 3 41 22 25 34 24 34 -2z
m2357 7 c3 -6 3 -8 -1 -4 -4 3 -25 0 -46 -7 -21 -8 -54 -12 -72 -9 -18 2 -50
5 -71 6 -38 1 -38 2 -15 14 29 17 195 17 205 0z m-140 -62 c-3 -3 -12 -4 -19
-1 -8 3 -5 6 6 6 11 1 17 -2 13 -5z m-2307 -119 c-12 -14 -14 -14 -31 1 -10 9
-17 29 -17 46 l1 30 30 -31 c26 -25 28 -32 17 -46z m2200 13 c14 -18 26 -22
69 -19 57 3 69 -15 29 -41 -18 -12 -29 -12 -50 -4 -28 12 -78 61 -78 77 0 15
11 10 30 -13z m-2666 -20 c-4 -6 -10 -5 -15 3 -14 22 -10 33 6 19 8 -7 12 -17
9 -22z m356 -43 c0 -17 -46 -42 -57 -31 -7 7 34 45 50 46 4 0 7 -7 7 -15z
m-290 -14 c0 -5 18 -13 40 -20 45 -13 48 -21 22 -59 -35 -50 -35 -51 0 -41 27
7 35 6 45 -7 17 -23 8 -33 -28 -32 -16 1 -35 -5 -42 -12 -10 -10 -8 -12 5 -7
12 4 21 0 28 -13 13 -24 13 -50 0 -50 -18 0 -48 60 -42 83 5 19 3 20 -10 9
-22 -18 -41 3 -62 68 -18 56 -16 70 9 50 9 -7 15 -8 15 -2 0 6 -5 12 -12 14
-6 2 -9 12 -5 21 6 16 37 14 37 -2z m-1885 -21 c3 -5 -3 -10 -14 -10 -11 0
-23 5 -26 10 -3 6 3 10 14 10 11 0 23 -4 26 -10z m4309 -66 c25 -10 19 -22 -9
-16 -14 2 -25 8 -25 13 0 10 12 11 34 3z m-2044 -39 c14 -16 10 -18 -14 -9 -9
3 -16 10 -16 15 0 14 16 11 30 -6z m-191 -48 c6 -8 7 -18 3 -22 -4 -5 1 -5 11
-2 14 5 17 1 17 -26 -1 -18 -7 -43 -15 -57 l-13 -25 -7 25 c-3 14 -7 41 -9 61
-2 20 -6 41 -10 48 -10 16 9 14 23 -2z m151 3 c0 -5 -2 -10 -4 -10 -3 0 -8 5
-11 10 -3 6 -1 10 4 10 6 0 11 -4 11 -10z m2102 -13 c21 -7 41 -16 44 -20 4
-4 29 -10 56 -13 31 -4 48 -11 48 -20 0 -8 -5 -14 -11 -14 -5 0 -8 -4 -5 -8 6
-9 -61 -8 -71 1 -3 4 1 7 11 7 24 0 11 17 -20 24 -40 10 -104 40 -104 48 0 11
9 10 52 -5z m-4232 -35 c0 -5 -9 -18 -20 -30 -24 -25 -52 -30 -44 -7 4 9 0 15
-7 16 -8 0 4 6 26 14 22 7 41 13 43 14 1 1 2 -3 2 -7z m4278 -37 c-3 -3 -9 2
-12 12 -6 14 -5 15 5 6 7 -7 10 -15 7 -18z m-2338 5 c12 -8 11 -10 -7 -10 -12
0 -25 5 -28 10 -8 13 15 13 35 0z m-145 -10 c3 -5 1 -10 -4 -10 -6 0 -11 5
-11 10 0 6 2 10 4 10 3 0 8 -4 11 -10z m-1810 -20 c-3 -5 -12 -10 -18 -10 -7
0 -6 4 3 10 19 12 23 12 15 0z m4645 -57 c0 -19 -3 -24 -10 -17 -6 6 -8 18 -4
27 9 24 14 21 14 -10z m590 -23 c0 -5 -4 -10 -10 -10 -5 0 -10 5 -10 10 0 6 5
10 10 10 6 0 10 -4 10 -10z m-921 -39 c15 -10 7 -31 -13 -31 -8 0 -19 6 -25
13 -19 23 9 36 38 18z m-1513 -37 c-4 -9 -9 -15 -11 -12 -3 3 -3 13 1 22 4 9
9 15 11 12 3 -3 3 -13 -1 -22z m-3359 10 c-3 -3 -2 -17 3 -30 7 -19 6 -24 -5
-24 -12 0 -13 -5 -2 -27 6 -16 17 -31 24 -36 7 -4 9 -15 6 -24 -4 -11 -3 -14
5 -9 7 4 28 -2 46 -14 19 -11 58 -28 87 -36 62 -19 258 -27 277 -12 6 6 12 8
12 5 0 -3 16 -1 36 4 67 19 124 -27 89 -74 -8 -12 -27 -37 -40 -56 -14 -19
-31 -55 -39 -80 -8 -25 -29 -78 -48 -118 l-34 -72 -89 76 c-50 41 -108 92
-130 113 -22 21 -62 49 -90 63 -52 26 -184 156 -210 208 -12 23 -13 34 -2 66
6 21 18 38 25 38 7 0 17 6 21 14 5 7 13 11 19 7 5 -3 15 1 22 9 7 8 15 15 18
15 3 0 3 -3 -1 -6z m4933 -19 c16 -20 8 -29 -19 -20 -12 4 -18 12 -14 21 7 18
17 18 33 -1z m245 5 c3 -5 3 -15 -1 -21 -6 -11 -23 6 -24 24 0 10 18 9 25 -3z
m-350 -31 c-6 -9 -35 -1 -35 10 0 4 3 11 7 14 8 9 34 -13 28 -24z m155 -4 c7
-8 9 -15 4 -16 -5 0 2 -5 15 -10 37 -15 17 -23 -23 -9 -39 13 -39 12 -30 34 8
20 18 20 34 1z m-2927 -40 c20 -42 20 -45 6 -45 -5 0 -7 5 -4 10 3 6 2 10 -3
10 -8 0 -32 42 -32 55 0 17 19 -1 33 -30z m2742 21 c16 -12 17 -16 6 -30 -16
-20 -41 -4 -41 25 0 23 9 24 35 5z m-4200 -6 c3 -5 0 -7 -8 -4 -9 3 -16 -3
-20 -15 -3 -14 -13 -21 -28 -21 l-22 0 23 25 c25 26 45 32 55 15z m3693 -60
c9 0 12 -7 9 -20 -3 -11 -1 -20 3 -20 4 0 13 -15 19 -32 11 -30 10 -35 -14
-55 -14 -13 -33 -23 -41 -23 -24 0 -15 15 16 27 48 18 39 63 -15 70 -34 5 -45
12 -45 28 0 9 9 15 23 16 22 0 21 1 -3 12 -25 12 -40 26 -40 40 0 4 17 -4 37
-18 21 -14 44 -25 51 -25z m658 16 c3 -8 -3 -33 -13 -55 l-18 -41 -47 31 c-51
33 -53 36 -39 58 8 12 14 12 44 -2 44 -21 47 -21 47 3 0 23 18 27 26 6z m-550
-112 c-4 -9 -9 -15 -11 -12 -3 3 -3 13 1 22 4 9 9 15 11 12 3 -3 3 -13 -1 -22z
m569 16 c3 -5 2 -10 -4 -10 -5 0 -13 5 -16 10 -3 6 -2 10 4 10 5 0 13 -4 16
-10z m-523 -72 c-4 -46 -5 -48 -30 -41 -16 4 -29 1 -36 -9 -6 -8 -19 -17 -28
-21 -22 -8 -23 11 -3 59 13 32 16 34 35 22 18 -11 23 -10 43 14 12 14 22 26
23 25 0 -1 -1 -23 -4 -49z m638 7 c8 -10 10 -33 5 -77 l-8 -63 -13 60 c-6 33
-15 68 -19 78 -9 21 17 24 35 2z m-790 -30 c-7 -9 -15 -13 -17 -11 -7 7 7 26
19 26 6 0 6 -6 -2 -15z m-3690 -95 c0 -5 -7 -10 -15 -10 -8 0 -15 5 -15 10 0
6 7 10 15 10 8 0 15 -4 15 -10z m3766 -21 c3 -5 -6 -9 -20 -9 -18 0 -24 -4
-20 -14 4 -11 0 -13 -15 -9 -21 5 -29 23 -11 23 6 0 10 6 10 14 0 15 46 11 56
-5z m69 11 c3 -5 1 -10 -4 -10 -6 0 -11 5 -11 10 0 6 2 10 4 10 3 0 8 -4 11
-10z m35 -20 c0 -5 -7 -10 -16 -10 -8 0 -12 5 -9 10 3 6 10 10 16 10 5 0 9 -4
9 -10z m-111 -146 c2 -2 -4 -7 -13 -10 -11 -4 -24 0 -34 10 -16 16 -15 17 13
10 17 -4 32 -8 34 -10z m-5392 -10 c-3 -3 -12 -4 -19 -1 -8 3 -5 6 6 6 11 1
17 -2 13 -5z m1639 -646 c-2 -29 -9 -54 -15 -56 -16 -5 -13 -29 4 -36 16 -6
21 -46 5 -46 -33 0 -57 143 -29 176 25 31 39 16 35 -38z"/>
<path d="M6890 3481 c-8 -5 -30 -8 -49 -6 -32 2 -37 -2 -72 -54 -21 -31 -47
-66 -58 -78 -17 -18 -18 -23 -6 -33 11 -9 12 -17 5 -30 -17 -31 -11 -60 16
-87 28 -27 47 -24 22 4 -19 22 -13 43 12 43 11 0 37 18 59 40 22 22 47 40 56
40 16 0 75 -57 75 -73 0 -4 14 -13 30 -18 17 -6 30 -14 30 -17 -1 -18 -30 -42
-67 -57 -28 -11 -40 -21 -36 -30 4 -11 -1 -12 -24 -6 -38 12 -84 37 -78 43 3
3 -22 5 -56 5 l-61 1 -54 -56 c-52 -53 -65 -70 -44 -57 19 12 10 -32 -10 -50
-18 -16 -19 -20 -5 -28 8 -4 13 -12 10 -18 -4 -5 -1 -9 6 -9 15 0 34 -23 58
-72 11 -22 15 -38 8 -38 -5 0 -8 -2 -5 -5 9 -10 37 6 32 18 -7 22 13 38 52 41
21 2 41 4 43 5 2 1 -2 8 -9 16 -16 19 -10 25 32 35 28 7 23 8 -30 9 -59 1 -63
3 -57 21 7 23 2 25 -17 6 -12 -11 -17 -11 -32 0 -10 7 -15 17 -12 22 7 12 123
45 134 38 4 -2 14 0 22 5 11 8 -1 9 -38 4 -38 -4 -52 -3 -47 5 10 15 56 34 79
31 10 -2 15 2 12 7 -10 17 11 23 24 7 7 -8 19 -15 26 -15 8 0 14 -5 14 -11 0
-6 7 -9 15 -5 8 3 15 1 15 -4 0 -6 -14 -10 -32 -10 -48 0 -25 -12 32 -16 60
-5 140 -38 140 -59 0 -10 -11 -13 -45 -10 -26 3 -45 0 -45 -5 0 -6 -19 -11
-42 -11 -24 -1 -35 -3 -25 -6 18 -5 24 -33 7 -33 -5 0 -10 -7 -10 -15 0 -8 -9
-15 -21 -15 -11 0 -18 -4 -14 -9 6 -11 44 -9 63 3 7 4 12 3 12 -3 0 -5 14 -8
31 -6 22 3 28 1 21 -8 -9 -12 -7 -56 4 -66 3 -3 12 3 20 13 10 14 17 16 27 8
10 -8 16 -4 26 19 7 16 10 36 7 45 -3 8 -2 12 4 9 11 -6 45 54 42 73 -4 19 8
15 29 -10 l19 -23 -3 47 c-2 26 -6 51 -10 54 -4 4 -7 2 -7 -4 0 -24 -16 -11
-32 27 -26 59 -63 94 -93 89 -31 -6 -31 -5 0 26 29 29 31 52 10 83 -11 16 -12
22 -3 25 8 3 7 11 -5 28 -9 14 -17 34 -17 47 0 12 -5 25 -10 28 -6 4 -18 24
-27 46 -8 22 -24 44 -34 49 -21 12 -20 12 -39 1z m115 -642 c-10 -15 -25 -10
-19 6 4 8 10 12 15 9 5 -3 7 -10 4 -15z"/>
<path d="M6825 3190 c22 -11 46 -20 55 -20 28 0 90 21 90 30 0 16 -46 11 -60
-5 -16 -19 -41 -19 -66 0 -10 8 -28 15 -39 15 -12 0 -5 -7 20 -20z"/>
<path d="M7066 3184 c-4 -9 -4 -19 -2 -21 8 -8 26 8 26 23 0 19 -16 18 -24 -2z"/>
<path d="M6735 2990 c-3 -5 -1 -10 4 -10 6 0 11 5 11 10 0 6 -2 10 -4 10 -3 0
-8 -4 -11 -10z"/>
<path d="M6790 2890 c0 -6 7 -10 15 -10 8 0 15 2 15 4 0 2 -7 6 -15 10 -8 3
-15 1 -15 -4z"/>
<path d="M6615 2860 c-3 -5 1 -10 10 -10 9 0 13 5 10 10 -3 6 -8 10 -10 10 -2
0 -7 -4 -10 -10z"/>
<path d="M8940 2570 c0 -5 5 -10 10 -10 6 0 10 5 10 10 0 6 -4 10 -10 10 -5 0
-10 -4 -10 -10z"/>
<path d="M6505 2480 c3 -5 8 -10 11 -10 2 0 4 5 4 10 0 6 -5 10 -11 10 -5 0
-7 -4 -4 -10z"/>
<path d="M6595 2029 c-4 -6 -5 -12 -2 -15 2 -3 7 2 10 11 7 17 1 20 -8 4z"/>
<path d="M7245 3919 c-4 -5 1 -19 11 -30 20 -23 36 -25 28 -4 -5 11 -2 14 12
8 18 -6 18 -6 0 15 -21 24 -41 28 -51 11z"/>
<path d="M7286 3833 c-29 -46 -25 -55 9 -23 l25 23 0 -27 c0 -24 2 -26 15 -12
18 18 19 35 1 59 -18 24 -22 22 -50 -20z"/>
<path d="M7457 3405 c4 -38 7 -127 7 -197 1 -79 5 -123 10 -118 15 15 9 267
-7 330 l-15 55 5 -70z"/>
<path d="M4700 3267 c0 -16 -3 -17 -95 -17 -16 0 -46 -3 -65 -7 l-35 -7 50 -7
c50 -7 50 -7 -15 -7 -91 1 -113 -3 -70 -12 189 -41 269 -64 258 -75 -2 -2 -22
2 -43 10 -22 8 -60 14 -85 15 -25 0 -61 4 -80 9 -19 5 -52 12 -72 16 -32 5
-38 3 -38 -12 0 -11 8 -19 20 -21 11 -1 27 -2 35 -3 24 -3 105 -80 105 -100 0
-17 37 -52 63 -62 8 -3 4 -11 -10 -24 -22 -20 -32 -40 -14 -29 5 3 14 -1 21
-9 7 -8 20 -15 29 -15 27 0 111 -92 111 -121 0 -47 18 -57 85 -49 73 9 148 -6
174 -34 33 -37 69 -181 74 -297 4 -104 9 -129 26 -129 16 0 18 49 3 64 -13 13
-13 17 -2 32 13 15 16 14 32 -6 19 -23 19 -23 17 32 -2 44 3 62 25 94 29 44
50 162 35 199 -4 11 -13 48 -19 82 -6 34 -17 75 -25 90 -8 15 -15 35 -15 43 0
8 -15 47 -34 85 -44 90 -152 204 -216 227 -77 28 -145 47 -188 54 -35 5 -42 4
-42 -9z m-3 -43 c-3 -3 -12 -4 -19 -1 -8 3 -5 6 6 6 11 1 17 -2 13 -5z m394
-380 c38 -19 32 -29 -7 -13 -16 7 -47 15 -69 19 l-40 7 43 2 c24 0 57 -6 73
-15z m58 -67 c13 -16 12 -17 -13 -7 -15 5 -44 11 -64 12 -32 1 -31 2 13 7 28
4 50 6 50 6 1 0 7 -8 14 -18z"/>
<path d="M4230 3200 c-8 -5 -27 -10 -41 -10 -28 0 -160 -62 -177 -83 -7 -7
-13 -24 -15 -38 -3 -17 -11 -24 -26 -23 -22 1 -30 -21 -10 -28 8 -3 6 -15 -5
-41 -18 -44 -20 -151 -2 -140 6 3 4 -2 -5 -13 -29 -35 -33 -49 -6 -25 25 23
27 23 27 5 0 -10 7 -39 15 -64 8 -25 26 -82 40 -127 23 -72 30 -83 57 -92 17
-6 34 -8 40 -5 13 8 38 -15 38 -36 0 -10 6 -23 14 -29 12 -10 17 -6 25 26 6
21 11 73 11 115 0 48 4 78 11 80 6 2 12 16 12 31 0 15 3 27 8 27 5 0 8 3 7 8
-1 4 4 17 11 30 9 17 9 27 1 37 -8 10 -8 14 2 17 8 3 13 25 14 56 2 35 9 60
25 81 19 26 21 34 11 56 -10 21 -10 25 0 19 7 -5 4 5 -6 21 -28 43 -26 113 3
137 l23 18 -43 0 c-24 0 -51 -5 -59 -10z m50 -10 c-20 -13 -33 -13 -25 0 3 6
14 10 23 10 15 0 15 -2 2 -10z m-137 -57 c4 -3 -5 -12 -19 -20 -36 -18 -40
-16 -19 7 19 21 28 24 38 13z m-83 -28 c-13 -14 -26 -23 -28 -20 -4 4 38 44
47 45 3 0 -6 -11 -19 -25z"/>
<path d="M4530 3071 c0 -5 5 -13 10 -16 6 -3 10 -2 10 4 0 5 -4 13 -10 16 -5
3 -10 2 -10 -4z"/>
<path d="M7383 3040 c0 -19 -3 -42 -7 -50 -8 -13 -7 -13 7 0 12 12 14 23 7 50
l-9 35 2 -35z"/>
<path d="M4555 3010 c3 -5 13 -10 21 -10 8 0 12 5 9 10 -3 6 -13 10 -21 10 -8
0 -12 -4 -9 -10z"/>
<path d="M7370 2945 c0 -9 6 -12 15 -9 8 4 15 10 15 15 0 5 -7 9 -15 9 -8 0
-15 -7 -15 -15z"/>
<path d="M4455 2931 c-10 -17 10 -20 35 -5 l25 13 -27 1 c-15 0 -29 -4 -33 -9z"/>
<path d="M4502 2879 c-11 -19 -34 -42 -51 -52 -29 -17 -36 -15 -32 6 1 5 -11
1 -26 -8 -28 -17 -73 -100 -50 -92 6 2 20 -4 30 -14 18 -16 20 -16 38 2 29 29
66 40 123 37 54 -3 78 -18 96 -58 10 -24 10 -24 6 -2 -3 15 3 31 15 43 10 10
16 25 13 34 -4 8 -1 15 6 15 7 0 10 6 7 14 -4 10 2 13 19 12 13 0 24 -4 24 -8
0 -5 7 -8 16 -8 14 0 14 3 4 15 -7 8 -20 15 -29 15 -9 0 -27 16 -41 35 -22 30
-57 51 -68 40 -2 -2 1 -13 8 -24 15 -29 5 -41 -34 -41 -38 0 -50 8 -36 25 6 8
5 18 -4 30 -12 16 -14 15 -34 -16z"/>
<path d="M715 2686 c-43 -18 -93 -79 -101 -121 -9 -50 1 -113 22 -136 48 -53
169 -44 230 18 48 47 45 63 -11 63 -31 0 -55 -7 -74 -21 -23 -17 -33 -19 -49
-10 -40 21 -39 75 1 119 24 25 59 29 77 7 14 -17 110 -21 110 -5 0 25 -32 71
-60 85 -35 18 -104 19 -145 1z"/>
<path d="M1054 2682 c-79 -37 -119 -160 -74 -230 27 -43 81 -66 139 -58 95 13
151 79 151 180 0 47 -4 61 -29 88 -24 27 -36 32 -87 35 -43 3 -70 -1 -100 -15z
m114 -74 c23 -23 14 -77 -17 -109 -35 -34 -54 -36 -82 -8 -26 26 -20 71 13
106 23 25 67 30 86 11z"/>
<path d="M1366 2689 c-3 -8 -15 -76 -29 -151 l-23 -138 89 0 c131 0 192 37
218 133 14 53 -3 111 -43 141 -36 25 -205 38 -212 15z m148 -85 c40 -40 -8
-134 -69 -134 -24 0 -26 3 -21 28 3 15 8 45 12 67 4 22 9 43 11 48 7 13 51 7
67 -9z"/>
<path d="M1706 2689 c-3 -8 -15 -76 -29 -151 l-23 -138 89 0 c131 0 192 37
218 133 14 53 -3 111 -43 141 -36 25 -205 38 -212 15z m148 -85 c40 -40 -8
-134 -69 -134 -24 0 -26 3 -21 28 3 15 8 45 12 67 4 22 9 43 11 48 7 13 51 7
67 -9z"/>
<path d="M2045 2688 c-2 -7 -14 -75 -28 -150 l-23 -138 103 0 103 0 0 30 c0
29 -1 30 -50 30 -41 0 -50 3 -50 18 0 30 14 41 60 44 41 3 45 6 48 31 3 26 2
27 -42 27 -46 0 -51 5 -40 34 5 12 20 16 59 16 51 0 53 1 57 30 3 17 2 32 0
35 -3 3 -47 5 -99 5 -66 0 -95 -4 -98 -12z"/>
<path d="M2315 2688 c-2 -7 -14 -75 -28 -150 l-23 -138 47 0 48 0 7 46 c7 50
15 48 34 -8 11 -37 13 -38 61 -38 27 0 49 4 49 9 0 5 -9 30 -20 55 l-19 46 28
14 c34 18 54 61 49 107 -2 27 -10 37 -38 51 -43 22 -188 26 -195 6z m129 -71
c25 -19 10 -47 -25 -47 -29 0 -35 12 -23 44 7 19 24 20 48 3z"/>
<path d="M11525 2691 c-49 -21 -74 -79 -52 -121 7 -14 35 -36 62 -50 27 -14
50 -31 53 -37 6 -21 -29 -28 -43 -10 -8 12 -27 17 -59 17 -25 0 -46 -2 -46 -4
0 -1 5 -17 10 -33 14 -39 46 -53 119 -53 75 0 111 28 111 88 0 44 -13 58 -77
91 -45 22 -57 51 -23 51 11 0 20 -4 20 -10 0 -5 23 -10 50 -10 58 0 64 13 27
56 -19 22 -34 28 -78 30 -30 2 -63 0 -74 -5z"/>
<path d="M12015 2682 c-22 -11 -48 -28 -57 -38 -27 -31 -48 -90 -48 -135 0
-33 6 -47 34 -75 31 -31 39 -34 93 -34 97 0 159 46 170 128 l6 42 -81 0 -80 0
-4 -30 c-4 -29 -3 -30 35 -30 44 0 47 -19 5 -34 -59 -21 -99 17 -84 79 11 44
43 68 79 60 18 -4 55 -9 84 -12 l52 -5 -8 28 c-17 63 -119 92 -196 56z"/>
<path d="M4418 2674 c-78 -24 -59 -43 45 -46 l62 -1 -50 -7 c-47 -6 -48 -6
-21 -14 35 -11 102 5 99 22 -2 7 8 12 22 12 31 0 32 14 3 34 -28 20 -97 20
-160 0z"/>
<path d="M10875 2678 c-5 -18 -45 -250 -45 -266 0 -9 23 -12 83 -12 145 1 208
49 215 167 4 58 2 64 -26 93 -30 29 -33 30 -127 30 -68 0 -97 -4 -100 -12z
m146 -68 c13 -8 19 -21 19 -46 0 -44 -45 -94 -85 -94 -25 0 -27 2 -21 33 3 17
8 51 12 75 6 36 10 42 31 42 13 0 33 -5 44 -10z"/>
<path d="M11215 2678 c-5 -18 -45 -250 -45 -266 0 -10 23 -12 98 -10 l97 3 3
28 c3 26 2 27 -48 27 -50 0 -51 1 -48 28 3 24 7 27 48 30 46 3 60 14 60 45 0
14 -9 17 -45 17 -41 0 -45 2 -45 25 0 22 4 24 58 27 54 3 57 4 60 31 l3 27
-96 0 c-68 0 -97 -4 -100 -12z"/>
<path d="M11785 2678 c-5 -18 -45 -250 -45 -266 0 -8 15 -12 43 -12 l43 0 25
145 25 145 -43 0 c-26 0 -45 -5 -48 -12z"/>
<path d="M12295 2678 c-5 -18 -45 -250 -45 -266 0 -8 15 -12 44 -12 l44 0 7
53 c14 98 20 100 56 20 l32 -73 48 0 c27 0 49 3 49 8 0 4 11 68 25 142 14 74
25 136 25 138 0 1 -20 2 -45 2 -43 0 -44 -1 -51 -37 -3 -21 -9 -54 -13 -73
l-8 -35 -36 73 -37 72 -45 0 c-28 0 -47 -5 -50 -12z"/>
<path d="M12655 2678 c-5 -18 -45 -250 -45 -266 0 -10 23 -12 98 -10 l97 3 3
28 c3 26 2 27 -48 27 -50 0 -51 1 -48 28 3 24 7 27 48 30 46 3 60 14 60 45 0
14 -9 17 -45 17 -41 0 -45 2 -45 25 0 22 4 24 58 27 54 3 57 4 60 31 l3 27
-96 0 c-68 0 -97 -4 -100 -12z"/>
<path d="M12915 2678 c-5 -18 -45 -250 -45 -266 0 -8 15 -12 44 -12 l43 0 10
53 9 52 19 -52 20 -53 47 0 c27 0 48 2 48 5 0 2 -9 27 -20 55 -24 60 -24 60
-6 60 25 0 66 59 66 96 0 60 -25 74 -135 74 -68 0 -97 -4 -100 -12z m133 -60
c16 -16 15 -23 -4 -42 -26 -27 -54 -20 -54 12 0 16 3 32 7 35 10 11 38 8 51
-5z"/>
<path d="M4833 2663 c-36 -14 10 -73 56 -73 20 0 23 2 11 10 -11 7 3 10 48 10
36 0 62 4 62 10 0 29 -133 61 -177 43z"/>
<path d="M402 2592 l-53 -47 33 -47 c33 -48 33 -48 91 -48 63 0 63 -1 19 58
l-25 33 49 50 48 49 -54 0 c-51 0 -59 -3 -108 -48z"/>
<path d="M2625 2613 c10 -16 24 -37 32 -48 12 -17 8 -24 -34 -67 l-47 -48 60
0 c58 0 61 1 106 48 l47 47 -35 48 c-34 46 -35 47 -90 47 l-56 0 17 -27z"/>
<path d="M4038 2483 c-7 -16 -18 -35 -26 -45 -15 -18 -13 -70 3 -66 6 1 9 8 7
15 -2 7 4 13 12 13 8 0 19 14 25 30 11 33 28 39 38 13 4 -10 11 -21 17 -25 7
-4 -1 -20 -22 -41 -35 -36 -39 -49 -18 -66 11 -9 15 -8 20 5 4 11 13 14 30 10
32 -8 39 3 20 31 -10 16 -13 34 -9 54 4 17 2 29 -3 29 -6 0 -20 16 -32 35 -26
42 -46 45 -62 8z"/>
<path d="M4638 2470 c-21 -11 -38 -25 -38 -30 0 -22 54 -32 114 -21 41 7 64 7
78 0 28 -15 40 1 25 31 -8 16 -21 25 -37 26 -14 0 -43 4 -65 7 -30 5 -49 2
-77 -13z"/>
<path d="M4210 2450 c-7 -26 -6 -70 1 -70 5 0 8 3 8 8 -3 19 2 23 15 13 10 -8
16 -9 21 -1 3 5 -1 10 -10 10 -8 0 -20 10 -25 23 -5 12 -9 20 -10 17z"/>
<path d="M4269 2406 c-7 -14 -17 -26 -23 -26 -5 0 -1 -6 9 -14 11 -8 26 -11
35 -8 12 5 13 3 2 -10 -10 -13 -9 -16 9 -21 11 -3 18 -10 15 -16 -4 -5 3 -13
15 -16 16 -5 27 0 44 19 12 14 26 22 30 18 5 -4 5 1 2 11 -6 15 -3 17 13 12
33 -10 23 2 -20 24 -22 11 -46 18 -55 15 -8 -4 -15 -1 -15 7 0 7 -3 9 -7 6 -3
-4 -14 0 -24 9 -17 15 -19 15 -30 -10z"/>
<path d="M4620 2390 c0 -15 -61 -50 -86 -50 -26 0 -52 -28 -63 -67 -14 -48 -1
-57 50 -34 24 12 59 21 77 21 22 0 32 5 32 15 0 33 117 4 189 -46 51 -36 56
-37 59 -19 2 11 7 20 12 20 15 0 -5 43 -21 46 -29 6 -115 36 -149 52 -19 9
-46 16 -60 17 -21 0 -25 4 -22 28 2 15 -1 27 -7 27 -6 0 -11 -5 -11 -10z"/>
<path d="M4057 2279 c7 -7 15 -10 18 -7 3 3 -2 9 -12 12 -14 6 -15 5 -6 -5z"/>
<path d="M4660 2241 c0 -6 -10 -11 -22 -11 -18 0 -20 -2 -8 -10 9 -5 19 -5 27
1 7 6 17 7 24 4 19 -12 79 -23 79 -15 0 15 -28 31 -64 37 -24 4 -36 2 -36 -6z"/>
<path d="M5110 2211 c0 -5 -10 -12 -22 -16 -16 -4 -19 -8 -10 -12 15 -6 62 16
62 29 0 4 -7 8 -15 8 -8 0 -15 -4 -15 -9z"/>
<path d="M4442 2198 c2 -6 10 -14 16 -16 7 -2 10 2 6 12 -7 18 -28 22 -22 4z"/>
<path d="M4381 2176 c-8 -10 -9 -16 -1 -21 5 -3 10 -3 10 2 0 4 7 -3 16 -15
14 -20 17 -21 30 -7 20 19 10 35 -22 35 -14 0 -22 4 -19 10 9 15 -1 12 -14 -4z"/>
<path d="M1100 2151 c0 -12 -4 -20 -9 -17 -4 3 -6 -6 -3 -21 3 -18 -1 -30 -13
-39 -16 -12 -16 -13 3 -11 16 1 21 11 26 50 4 27 5 52 1 55 -3 3 -5 -5 -5 -17z"/>
<path d="M2312 2150 c0 -14 2 -19 5 -12 2 6 2 18 0 25 -3 6 -5 1 -5 -13z"/>
<path d="M182 2135 c0 -16 2 -22 5 -12 2 9 2 23 0 30 -3 6 -5 -1 -5 -18z"/>
<path d="M1312 2135 c0 -16 2 -22 5 -12 2 9 2 23 0 30 -3 6 -5 -1 -5 -18z"/>
<path d="M2046 2145 c-3 -9 -5 -33 -5 -53 1 -34 2 -33 10 13 8 51 6 68 -5 40z"/>
<path d="M3222 2135 c0 -16 2 -22 5 -12 2 9 2 23 0 30 -3 6 -5 -1 -5 -18z"/>
<path d="M3274 2146 c-3 -8 -4 -23 -2 -33 3 -11 6 -6 9 15 6 34 2 42 -7 18z"/>
<path d="M4772 2144 c-7 -8 -10 -23 -7 -34 5 -16 9 -17 24 -8 10 6 18 17 18
24 0 7 -4 11 -8 8 -4 -2 -9 2 -11 10 -3 12 -5 12 -16 0z"/>
<path d="M561 2130 c-1 -14 -3 -34 -5 -45 -2 -11 -1 -14 1 -7 4 11 10 9 26 -4
22 -18 22 -18 5 1 -17 18 -17 20 5 44 21 25 21 25 0 8 -21 -18 -21 -18 -26 5
-4 23 -4 23 -6 -2z"/>
<path d="M1601 2122 c0 -16 3 -21 6 -12 3 8 10 18 15 21 5 3 3 9 -6 12 -12 5
-16 0 -15 -21z"/>
<path d="M1861 2130 c-1 -14 -3 -34 -5 -45 -2 -11 -1 -14 1 -7 4 11 10 9 26
-4 22 -18 22 -18 5 1 -17 18 -17 20 5 44 21 25 21 25 0 8 -21 -18 -21 -18 -26
5 -4 23 -4 23 -6 -2z"/>
<path d="M3061 2142 c-1 -8 -6 -10 -13 -6 -8 5 -7 1 2 -10 15 -19 26 -7 17 17
-4 9 -6 9 -6 -1z"/>
<path d="M280 2125 c0 -8 2 -15 4 -15 2 0 6 7 10 15 3 8 1 15 -4 15 -6 0 -10
-7 -10 -15z"/>
<path d="M337 2119 c4 -13 8 -18 11 -10 2 7 -1 18 -6 23 -8 8 -9 4 -5 -13z"/>
<path d="M398 2113 c5 -21 7 -23 10 -9 2 10 0 22 -6 28 -6 6 -7 0 -4 -19z"/>
<path d="M452 2128 c-14 -14 -16 -54 -3 -62 4 -3 6 6 3 19 -2 14 1 32 8 40 15
18 9 20 -8 3z"/>
<path d="M508 2112 c3 -17 -1 -30 -13 -38 -16 -12 -16 -13 4 -11 15 1 21 8 21
23 0 12 2 29 5 37 3 7 0 14 -8 14 -9 0 -12 -8 -9 -25z"/>
<path d="M690 2136 c0 -2 7 -9 15 -16 13 -11 14 -10 9 4 -5 14 -24 23 -24 12z"/>
<path d="M812 2128 c-14 -14 -16 -54 -3 -62 4 -3 6 6 3 19 -2 14 1 32 8 40 15
18 9 20 -8 3z"/>
<path d="M866 2127 c3 -10 9 -15 12 -12 3 3 0 11 -7 18 -10 9 -11 8 -5 -6z"/>
<path d="M910 2119 c-6 -11 -9 -25 -6 -32 2 -7 5 -5 5 5 1 9 8 24 17 32 8 9
11 16 5 16 -6 0 -15 -9 -21 -21z"/>
<path d="M1032 2128 c-14 -14 -16 -54 -3 -62 4 -3 6 6 3 19 -2 14 1 32 8 40
15 18 9 20 -8 3z"/>
<path d="M1197 2119 c4 -13 8 -18 11 -10 2 7 -1 18 -6 23 -8 8 -9 4 -5 -13z"/>
<path d="M1537 2108 c-3 -18 -2 -36 2 -40 3 -4 7 11 9 33 3 47 -4 52 -11 7z"/>
<path d="M1658 2105 c2 -19 6 -35 8 -35 2 0 4 16 4 35 0 19 -4 35 -8 35 -4 0
-6 -16 -4 -35z"/>
<path d="M1712 2120 c0 -14 2 -19 5 -12 2 6 2 18 0 25 -3 6 -5 1 -5 -13z"/>
<path d="M1754 2115 c-3 -13 -4 -30 -1 -37 3 -7 6 -2 6 13 1 14 6 30 13 37 9
9 9 12 0 12 -6 0 -14 -11 -18 -25z"/>
<path d="M1817 2119 c4 -13 8 -18 11 -10 2 7 -1 18 -6 23 -8 8 -9 4 -5 -13z"/>
<path d="M2001 2124 c0 -11 3 -14 6 -6 3 7 2 16 -1 19 -3 4 -6 -2 -5 -13z"/>
<path d="M2105 2130 c-8 -13 3 -30 18 -30 8 0 7 3 -2 9 -7 5 -10 14 -7 20 4 6
5 11 2 11 -3 0 -8 -4 -11 -10z"/>
<path d="M2202 2128 c-14 -14 -16 -54 -3 -62 4 -3 6 6 3 19 -2 14 1 32 8 40
15 18 9 20 -8 3z"/>
<path d="M2257 2119 c4 -13 8 -18 11 -10 2 7 -1 18 -6 23 -8 8 -9 4 -5 -13z"/>
<path d="M2352 2120 c0 -14 2 -19 5 -12 2 6 2 18 0 25 -3 6 -5 1 -5 -13z"/>
<path d="M2502 2120 c0 -14 2 -19 5 -12 2 6 2 18 0 25 -3 6 -5 1 -5 -13z"/>
<path d="M2655 2130 c3 -5 8 -10 11 -10 2 0 4 5 4 10 0 6 -5 10 -11 10 -5 0
-7 -4 -4 -10z"/>
<path d="M2760 2135 c0 -2 7 -8 15 -15 12 -10 15 -10 15 2 0 8 -7 15 -15 15
-8 0 -15 -1 -15 -2z"/>
<path d="M2824 2115 c-3 -13 -4 -30 -1 -37 3 -7 6 -2 6 13 1 14 6 30 13 37 9
9 9 12 0 12 -6 0 -14 -11 -18 -25z"/>
<path d="M2887 2119 c4 -13 8 -18 11 -10 2 7 -1 18 -6 23 -8 8 -9 4 -5 -13z"/>
<path d="M3112 2128 c-14 -14 -16 -54 -3 -62 4 -3 6 6 3 19 -2 14 1 32 8 40
15 18 9 20 -8 3z"/>
<path d="M3168 2115 c2 -14 -2 -33 -9 -43 -13 -15 -12 -16 4 -3 18 14 23 56 8
65 -4 3 -6 -6 -3 -19z"/>
<path d="M980 2110 c0 -7 -8 -22 -17 -32 -15 -17 -15 -18 0 -13 17 7 33 42 23
52 -3 4 -6 0 -6 -7z"/>
<path d="M2302 2095 c0 -16 2 -22 5 -12 2 9 2 23 0 30 -3 6 -5 -1 -5 -18z"/>
<path d="M631 2094 c0 -11 3 -14 6 -6 3 7 2 16 -1 19 -3 4 -6 -2 -5 -13z"/>
<path d="M1130 2091 c0 -11 4 -22 9 -25 4 -3 6 6 3 19 -5 30 -12 33 -12 6z"/>
<path d="M1360 2091 c0 -11 4 -22 9 -25 4 -3 6 6 3 19 -5 30 -12 33 -12 6z"/>
<path d="M2591 2094 c0 -11 3 -14 6 -6 3 7 2 16 -1 19 -3 4 -6 -2 -5 -13z"/>
<path d="M2700 2091 c0 -11 4 -22 9 -25 4 -3 6 6 3 19 -5 30 -12 33 -12 6z"/>
<path d="M2980 2091 c0 -11 4 -22 9 -25 4 -3 6 6 3 19 -5 30 -12 33 -12 6z"/>
<path d="M172 2080 c0 -14 2 -19 5 -12 2 6 2 18 0 25 -3 6 -5 1 -5 -13z"/>
<path d="M272 2080 c0 -14 2 -19 5 -12 2 6 2 18 0 25 -3 6 -5 1 -5 -13z"/>
<path d="M1300 2080 c0 -11 4 -20 9 -20 5 0 7 9 4 20 -3 11 -7 20 -9 20 -2 0
-4 -9 -4 -20z"/>
<path d="M1421 2077 c-13 -21 -12 -21 5 -5 10 10 16 20 13 22 -3 3 -11 -5 -18
-17z"/>
<path d="M1992 2080 c0 -14 2 -19 5 -12 2 6 2 18 0 25 -3 6 -5 1 -5 -13z"/>
<path d="M2763 2082 c-9 -15 -8 -19 3 -19 8 0 14 9 14 19 0 10 -1 18 -3 18 -1
0 -7 -8 -14 -18z"/>
<path d="M3043 2082 c-9 -15 -8 -19 3 -19 8 0 14 9 14 19 0 10 -1 18 -3 18 -1
0 -7 -8 -14 -18z"/>
<path d="M10310 2089 c-1 -8 -5 -33 -9 -56 -5 -24 -5 -43 -1 -43 9 0 23 100
15 108 -3 3 -5 -1 -5 -9z"/>
<path d="M10586 2049 c-9 -70 -2 -72 11 -4 5 30 6 55 3 55 -4 0 -10 -23 -14
-51z"/>
<path d="M10637 2093 c-3 -5 -7 -30 -11 -58 -7 -56 7 -33 17 28 5 35 3 46 -6
30z"/>
<path d="M10798 2080 c-10 -11 -13 -22 -8 -25 15 -9 12 -23 -10 -45 -20 -20
-20 -20 -1 -20 20 0 25 9 36 73 7 42 6 42 -17 17z"/>
<path d="M12270 2083 c0 -10 -2 -36 -5 -58 l-5 -40 11 35 c6 19 16 38 22 42 9
6 8 8 -2 8 -7 0 -11 6 -7 15 3 8 1 15 -4 15 -6 0 -10 -8 -10 -17z"/>
<path d="M12498 2080 c-10 -11 -13 -22 -8 -25 15 -9 12 -23 -10 -45 -20 -20
-20 -20 -1 -20 20 0 25 9 36 73 7 42 6 42 -17 17z"/>
<path d="M12596 2078 c-14 -67 -15 -89 -6 -83 6 3 10 17 10 30 0 13 4 35 10
49 6 17 6 26 0 26 -5 0 -12 -10 -14 -22z"/>
<path d="M12665 2089 c-4 -6 -9 -32 -10 -57 l-4 -47 12 45 c7 25 16 51 20 58
5 7 4 12 -2 12 -5 0 -13 -5 -16 -11z"/>
<path d="M13848 2088 c-5 -11 -2 -15 10 -14 9 2 18 9 20 17 3 12 2 12 -6 0 -8
-11 -10 -11 -14 0 -3 10 -6 9 -10 -3z"/>
<path d="M331 2074 c0 -11 3 -14 6 -6 3 7 2 16 -1 19 -3 4 -6 -2 -5 -13z"/>
<path d="M689 2073 c-13 -16 -12 -17 4 -4 9 7 17 15 17 17 0 8 -8 3 -21 -13z"/>
<path d="M1591 2074 c0 -11 3 -14 6 -6 3 7 2 16 -1 19 -3 4 -6 -2 -5 -13z"/>
<path d="M1701 2074 c0 -11 3 -14 6 -6 3 7 2 16 -1 19 -3 4 -6 -2 -5 -13z"/>
<path d="M1811 2074 c0 -11 3 -14 6 -6 3 7 2 16 -1 19 -3 4 -6 -2 -5 -13z"/>
<path d="M2341 2074 c0 -11 3 -14 6 -6 3 7 2 16 -1 19 -3 4 -6 -2 -5 -13z"/>
<path d="M2491 2074 c0 -11 3 -14 6 -6 3 7 2 16 -1 19 -3 4 -6 -2 -5 -13z"/>
<path d="M2649 2073 c-13 -16 -12 -17 4 -4 16 13 21 21 13 21 -2 0 -10 -8 -17
-17z"/>
<path d="M2881 2074 c0 -11 3 -14 6 -6 3 7 2 16 -1 19 -3 4 -6 -2 -5 -13z"/>
<path d="M10244 2078 c-3 -4 4 -8 15 -8 12 0 21 4 21 8 0 5 -7 9 -15 9 -9 0
-18 -4 -21 -9z"/>
<path d="M12207 2083 c-10 -9 -9 -93 1 -93 4 0 7 23 8 50 1 53 1 54 -9 43z"/>
<path d="M13109 2085 c0 -5 -3 -29 -5 -52 -4 -37 -2 -43 13 -43 14 0 15 2 4 9
-11 7 -11 16 -3 38 6 18 6 36 1 44 -5 8 -9 10 -10 4z"/>
<path d="M850 2070 c-9 -6 -10 -10 -3 -10 6 0 15 5 18 10 8 12 4 12 -15 0z"/>
<path d="M2240 2070 c-9 -6 -10 -10 -3 -10 6 0 15 5 18 10 8 12 4 12 -15 0z"/>
<path d="M4755 2070 c3 -5 8 -10 11 -10 2 0 4 5 4 10 0 6 -5 10 -11 10 -5 0
-7 -4 -4 -10z"/>
<path d="M10404 2050 c3 -14 6 -33 6 -42 0 -28 15 -21 32 15 l16 32 7 -32 c4
-18 11 -33 14 -33 10 0 43 71 37 78 -3 2 -11 -7 -17 -21 -13 -29 -29 -27 -29
4 0 27 -15 23 -30 -8 l-13 -28 -14 30 c-12 26 -13 26 -9 5z"/>
<path d="M10536 2034 c-4 -20 -5 -38 -2 -41 2 -3 8 11 12 31 3 21 4 39 1 42
-2 3 -8 -11 -11 -32z"/>
<path d="M10728 2046 c-11 -26 -5 -56 12 -56 6 0 6 7 -2 19 -10 17 -9 23 6 40
11 12 14 21 7 21 -6 0 -16 -11 -23 -24z"/>
<path d="M10850 2056 c-15 -19 -9 -58 10 -63 11 -4 12 -2 2 4 -16 12 -10 52 9
64 8 5 9 9 3 9 -6 0 -17 -7 -24 -14z"/>
<path d="M10896 2062 c6 -4 14 -14 17 -22 4 -10 6 -8 6 8 1 15 -5 22 -16 22
-11 0 -14 -3 -7 -8z"/>
<path d="M10950 2055 c0 -8 9 -19 21 -25 12 -7 18 -18 15 -26 -3 -8 -1 -14 4
-14 19 0 10 39 -11 45 -12 4 -18 12 -15 21 3 8 1 14 -4 14 -6 0 -10 -7 -10
-15z"/>
<path d="M10995 2060 c3 -5 8 -10 11 -10 2 0 4 5 4 10 0 6 -5 10 -11 10 -5 0
-7 -4 -4 -10z"/>
<path d="M11046 2059 c-10 -30 -13 -69 -6 -69 4 0 10 17 12 38 5 38 2 55 -6
31z"/>
<path d="M11090 2056 c-14 -18 -10 -59 8 -62 7 -1 8 0 2 3 -16 8 -11 51 8 62
9 6 12 11 6 11 -6 0 -17 -7 -24 -14z"/>
<path d="M11150 2050 c8 -15 6 -24 -10 -40 -17 -17 -17 -20 -4 -20 14 0 14 -3
3 -16 -7 -9 -22 -14 -36 -11 -13 2 -23 0 -23 -4 0 -5 13 -9 30 -9 34 0 44 15
55 78 6 35 4 42 -9 42 -14 0 -15 -4 -6 -20z"/>
<path d="M11205 2058 c-9 -32 -11 -68 -4 -68 5 0 9 11 9 24 0 14 7 32 16 40
14 15 14 16 -1 16 -8 0 -17 -6 -20 -12z"/>
<path d="M11257 2059 c7 -7 10 -26 7 -43 l-4 -31 11 28 c12 31 6 57 -13 57 -9
0 -9 -3 -1 -11z"/>
<path d="M11361 2020 c-13 -60 -13 -84 -1 -52 7 16 18 22 38 22 16 0 35 7 42
14 14 18 10 58 -8 64 -11 3 -11 0 -1 -16 16 -26 -4 -55 -34 -50 -29 4 -32 23
-8 47 20 20 20 21 2 21 -15 0 -22 -11 -30 -50z"/>
<path d="M11492 2058 c-19 -19 -15 -68 6 -67 10 0 12 3 5 6 -19 7 -16 50 5 62
9 6 12 11 7 11 -6 0 -16 -5 -23 -12z"/>
<path d="M11536 2063 c6 -4 14 -15 17 -23 5 -11 6 -9 4 4 -1 11 -9 21 -17 23
-10 3 -11 2 -4 -4z"/>
<path d="M11585 2034 c-3 -20 -4 -39 -1 -42 3 -3 6 1 6 9 0 8 7 26 14 42 12
22 12 27 2 27 -8 0 -17 -16 -21 -36z"/>
<path d="M11654 2059 c-4 -7 3 -19 16 -29 13 -10 20 -22 16 -29 -4 -6 -3 -11
3 -11 22 0 23 24 1 40 -13 10 -20 22 -16 29 4 6 3 11 -3 11 -5 0 -13 -5 -17
-11z"/>
<path d="M11695 2060 c3 -5 8 -10 11 -10 2 0 4 5 4 10 0 6 -5 10 -11 10 -5 0
-7 -4 -4 -10z"/>
<path d="M11750 2056 c-14 -18 -10 -59 8 -62 7 -1 8 0 2 3 -16 8 -11 51 8 62
9 6 12 11 6 11 -6 0 -17 -7 -24 -14z"/>
<path d="M11800 2063 c16 -8 11 -51 -7 -62 -10 -6 -13 -11 -7 -11 31 -1 46 70
16 76 -7 1 -8 0 -2 -3z"/>
<path d="M11856 2048 c-3 -13 -5 -32 -5 -43 0 -12 5 -5 11 15 5 19 15 38 21
42 8 5 6 8 -4 8 -9 0 -19 -10 -23 -22z"/>
<path d="M11913 2028 c-1 -28 2 -37 8 -27 11 17 12 69 2 69 -5 0 -9 -19 -10
-42z"/>
<path d="M12018 2030 c5 -46 13 -50 32 -15 7 14 17 25 22 25 4 0 8 -11 8 -25
0 -35 13 -31 33 10 23 47 21 59 -2 16 l-18 -34 -6 32 c-8 38 -20 39 -37 4
l-14 -28 -4 28 c-5 43 -18 32 -14 -13z"/>
<path d="M12156 2048 c-3 -13 -5 -32 -5 -43 1 -11 5 -2 10 19 10 42 6 62 -5
24z"/>
<path d="M12323 2028 c-1 -28 2 -37 8 -27 11 17 12 69 2 69 -5 0 -9 -19 -10
-42z"/>
<path d="M12428 2046 c-11 -26 -5 -56 12 -56 6 0 6 7 -2 19 -10 17 -9 23 6 40
11 12 14 21 7 21 -6 0 -16 -11 -23 -24z"/>
<path d="M12546 2048 c-3 -13 -5 -32 -5 -43 1 -11 5 -2 10 19 10 42 6 62 -5
24z"/>
<path d="M12722 2058 c-19 -19 -15 -68 6 -67 10 0 12 3 5 6 -19 7 -16 50 5 62
9 6 12 11 7 11 -6 0 -16 -5 -23 -12z"/>
<path d="M12766 2063 c6 -4 14 -15 17 -23 5 -11 6 -9 4 4 -1 11 -9 21 -17 23
-10 3 -11 2 -4 -4z"/>
<path d="M12815 2034 c-3 -20 -4 -39 -1 -42 3 -3 6 1 6 9 0 8 7 26 14 42 12
22 12 27 2 27 -8 0 -17 -16 -21 -36z"/>
<path d="M12890 2056 c-15 -19 -9 -58 10 -63 11 -4 12 -2 2 4 -16 12 -10 52 9
64 8 5 9 9 3 9 -6 0 -17 -7 -24 -14z"/>
<path d="M12936 2062 c6 -4 14 -14 17 -22 4 -10 6 -8 6 8 1 15 -5 22 -16 22
-11 0 -14 -3 -7 -8z"/>
<path d="M12996 2048 c-3 -13 -5 -32 -5 -43 0 -12 5 -5 11 15 5 19 15 38 21
42 8 5 6 8 -4 8 -9 0 -19 -10 -23 -22z"/>
<path d="M13053 2028 c-1 -28 2 -37 8 -27 11 17 12 69 2 69 -5 0 -9 -19 -10
-42z"/>
<path d="M13223 2054 c3 -11 8 -29 12 -41 9 -32 17 -29 43 17 12 22 19 40 14
40 -5 0 -15 -13 -22 -30 -13 -31 -30 -32 -30 0 0 10 -5 22 -11 26 -7 4 -9 0
-6 -12z"/>
<path d="M13318 2046 c-12 -27 -5 -56 13 -56 8 0 8 4 -1 15 -10 12 -9 20 4 40
9 14 12 25 6 25 -6 0 -15 -11 -22 -24z"/>
<path d="M13379 2057 c6 -8 8 -17 4 -20 -3 -4 -1 -7 5 -7 14 0 14 2 6 24 -3 9
-11 16 -16 16 -7 0 -6 -5 1 -13z"/>
<path d="M13424 2035 c-3 -20 -4 -39 0 -42 3 -4 6 5 6 20 0 14 7 33 16 41 14
14 14 16 0 16 -9 0 -18 -13 -22 -35z"/>
<path d="M13490 2055 c0 -8 9 -19 21 -25 12 -7 18 -18 15 -26 -3 -8 -1 -14 4
-14 19 0 10 39 -11 45 -12 4 -18 12 -15 21 3 8 1 14 -4 14 -6 0 -10 -7 -10
-15z"/>
<path d="M13535 2060 c3 -5 8 -10 11 -10 2 0 4 5 4 10 0 6 -5 10 -11 10 -5 0
-7 -4 -4 -10z"/>
<path d="M13576 2034 c-4 -20 -5 -38 -2 -41 2 -3 8 11 12 31 3 21 4 39 1 42
-2 3 -8 -11 -11 -32z"/>
<path d="M13630 2056 c-14 -18 -10 -59 8 -62 7 -1 8 0 2 3 -15 7 -12 39 6 57
8 9 11 16 6 16 -5 0 -15 -7 -22 -14z"/>
<path d="M13688 2043 c3 -18 -1 -30 -13 -40 -11 -7 -15 -13 -9 -13 26 1 48 39
38 65 -10 25 -22 17 -16 -12z"/>
<path d="M13736 2048 c-3 -13 -5 -32 -5 -43 0 -12 5 -5 11 15 5 19 15 38 21
42 8 5 6 8 -4 8 -9 0 -19 -10 -23 -22z"/>
<path d="M13793 2028 c-1 -28 2 -37 8 -27 11 17 12 69 2 69 -5 0 -9 -19 -10
-42z"/>
<path d="M10896 2005 c-11 -8 -15 -15 -9 -15 6 0 16 7 23 15 16 19 11 19 -14
0z"/>
<path d="M11536 2005 c-11 -8 -15 -15 -9 -15 6 0 16 7 23 15 16 19 11 19 -14
0z"/>
<path d="M12766 2005 c-11 -8 -15 -15 -9 -15 6 0 16 7 23 15 16 19 11 19 -14
0z"/>
<path d="M12936 2005 c-11 -8 -15 -15 -9 -15 6 0 16 7 23 15 16 19 11 19 -14
0z"/>
<path d="M13366 2004 c-17 -12 -17 -14 -4 -14 9 0 20 5 23 11 11 17 2 18 -19
3z"/>
<path d="M10947 1999 c7 -7 15 -10 18 -7 3 3 -2 9 -12 12 -14 6 -15 5 -6 -5z"/>
<path d="M11650 2000 c0 -5 5 -10 11 -10 5 0 7 5 4 10 -3 6 -8 10 -11 10 -2 0
-4 -4 -4 -10z"/>
<path d="M13487 1999 c7 -7 15 -10 18 -7 3 3 -2 9 -12 12 -14 6 -15 5 -6 -5z"/>
<path d="M4820 1712 c0 -5 7 -9 15 -9 8 0 12 4 9 9 -3 4 -9 8 -15 8 -5 0 -9
-4 -9 -8z"/>
<path d="M12080 1506 c-110 -30 -194 -98 -238 -194 -37 -81 -37 -193 0 -274
65 -141 229 -228 377 -201 124 24 220 95 269 201 37 81 37 193 0 274 -70 152
-250 238 -408 194z m208 -434 l-93 -93 -5 43 -5 43 -92 3 -93 3 0 94 0 94 93
3 92 3 2 35 c1 19 2 39 2 45 1 5 44 -33 96 -85 l95 -95 -92 -93z"/>
<path d="M1384 1471 c-146 -37 -254 -172 -254 -316 0 -119 77 -238 189 -292
45 -21 71 -27 131 -27 162 -2 286 102 320 266 9 48 9 68 -5 120 -29 114 -81
179 -181 225 -55 25 -151 37 -200 24z m56 -201 l0 -50 100 0 100 0 0 -65 0
-65 -100 0 -100 0 0 -50 c0 -33 -4 -50 -12 -50 -14 0 -168 150 -168 163 0 15
152 167 167 167 9 0 13 -15 13 -50z"/>
</g>
</svg>
